<?xml version="1.0" encoding="UTF-8"?>
<svg id="TETE" xmlns="http://www.w3.org/2000/svg" viewBox="0 0 1920 1080">
  <defs>
    <style>
      .cls-1, .cls-2, .cls-3, .cls-4, .cls-5, .cls-6, .cls-7, .cls-8 {
        stroke-miterlimit: 10;
      }

      .cls-1, .cls-9 {
        fill: #1d1d1b;
      }

      .cls-1, .cls-7 {
        stroke: #1d1d1b;
      }

      .cls-2, .cls-3, .cls-4, .cls-5, .cls-6, .cls-8 {
        stroke: #000;
      }

      .cls-2, .cls-3, .cls-5, .cls-7 {
        stroke-linecap: round;
      }

      .cls-2, .cls-6 {
        stroke-width: 4px;
      }

      .cls-2, .cls-6, .cls-7 {
        fill: none;
      }

      .cls-3, .cls-4, .cls-5 {
        fill: #cbe0a9;
      }

      .cls-3, .cls-4, .cls-8 {
        stroke-width: 3px;
      }

      .cls-5, .cls-7 {
        stroke-width: 5px;
      }

      .cls-8 {
        fill: #dfb8d8;
      }
    </style>
  </defs>
  <circle class="cls-8" cx="959.32" cy="490.48" r="214.59"/>
  <path class="cls-4" d="M872.54,524.59c13.83,3.38,18.14-7.99,18.14-15.69,0-10.88-11.07-19.71-27.33-19.71s-28.95,10.8-29.31,21.68c-.4,12.33,14.93,19.56,18.87,14.2"/>
  <path class="cls-6" d="M849.26,510.45c0,18.33,9.61,18.76,12.66,18.69,4.31-.1,15.27-.39,11.92-18.69"/>
  <path class="cls-4" d="M1045.67,525.87c-13.83,3.38-18.14-7.99-18.14-15.69,0-10.88,11.07-19.71,27.33-19.71s28.95,10.8,29.31,21.68c.4,12.33-14.93,19.56-18.87,14.2"/>
  <path class="cls-6" d="M1068.95,511.73c0,18.33-9.61,18.76-12.66,18.69-4.31-.1-15.27-.39-11.92-18.69"/>
  <path class="cls-4" d="M906.26,613.55c11.74,11.15,18.65,34.89-2.12,51.28-15.01,11.84-35.17-1.98-42.8-12.57-9.85-13.68-8.09-37.51,3.25-44.92,11.02-7.2,27.54-7.2,41.67,6.22Z"/>
  <path class="cls-2" d="M875.82,602.96s-2.33,6.77,0,11.72"/>
  <path class="cls-2" d="M859.68,612.35s-1.31,6.99,2.5,12.36"/>
  <path class="cls-4" d="M1003.09,613.55c-11.74,11.15-18.65,34.89,2.12,51.28,15.01,11.84,35.17-1.98,42.8-12.57,9.85-13.68,8.09-37.51-3.25-44.92-11.02-7.2-27.54-7.2-41.67,6.22Z"/>
  <path class="cls-2" d="M1049.66,612.35s1.31,6.99-2.5,12.36"/>
  <path class="cls-2" d="M1032.66,602.64s1.31,6.99-2.5,12.36"/>
  <path class="cls-4" d="M913.92,348.74c-48.28,48.06-44.45,58.09-49.09,78.66-12.5,55.41,12.71,92.31,101.07,97.61,68.22,4.09,90.9-31.46,89.47-93.76-.11-4.66-7.94-59.46-26.86-75.96"/>
  <path class="cls-1" d="M975.08,452.89c0,6.63-6.52,9.18-15.11,9.18s-14.2-3.54-14.2-10.17,7.17-13.78,15.76-13.78,13.55,8.14,13.55,14.77Z"/>
  <path class="cls-7" d="M903.4,427.86s11.97-20.45,19.81,3.28"/>
  <path class="cls-7" d="M1019.68,438.05s-6.52-22.78-20.01-1.73"/>
  <path class="cls-5" d="M1028.51,355.29c-11.53-10.38-64.27-34.43-115.38-4.34"/>
  <path class="cls-3" d="M937.22,337.27s-37.21-35.17-67.51-17.58c-30.3,17.59-21.48,66.59-17.03,69.91,1.77,1.32,22.89,11.98,70.53-47.21"/>
  <path class="cls-9" d="M1052.62,423.49c.55,9.85-33.93-5.69-42.66-28.74-6.6-17.42-11.84-33.3-5.69-40.04,8.12-8.89,7.31-6.37,11-4.68,16.83,7.7,15.68,4.61,29.93,42.22,5.53,14.59,6.36,12.18,7.42,31.25Z"/>
  <path class="cls-3" d="M1028.3,355.29s50.13-30.67,72.36,8.48c23.52,41.42,6.71,60.73-3.39,66.11-11.55,6.14-74.58-13.02-62.08-66.63"/>
  <path class="cls-7" d="M936.71,465.54c1.39,5.07,6.03,8.79,11.54,8.79,4.87,0,9.06-2.91,10.93-7.09"/>
  <path class="cls-7" d="M959.32,467.13c.54-5.56.67-8.82.61-11.28"/>
  <path class="cls-7" d="M981.95,466.86c-1.39,5.07-5.81,8.1-11.32,8.1-4.87,0-9.06-2.91-10.93-7.09"/>
</svg>