<?xml version="1.0" encoding="UTF-8"?>
<svg id="Calque_2" data-name="Calque 2" xmlns="http://www.w3.org/2000/svg" viewBox="0 0 894 879">
  <defs>
    <style>
      .cls-1 {
        fill: #1d1d1b;
      }

      .cls-1, .cls-2, .cls-3, .cls-4, .cls-5, .cls-6, .cls-7 {
        stroke-miterlimit: 10;
      }

      .cls-1, .cls-4, .cls-6 {
        stroke: #1d1d1b;
      }

      .cls-2, .cls-3, .cls-5, .cls-6, .cls-7 {
        fill: none;
      }

      .cls-2, .cls-3, .cls-5, .cls-7 {
        stroke: #000;
      }

      .cls-2, .cls-3, .cls-6 {
        stroke-linecap: round;
      }

      .cls-2, .cls-6 {
        stroke-width: 5px;
      }

      .cls-3, .cls-5 {
        stroke-width: 4px;
      }

      .cls-7 {
        stroke-width: 3px;
      }
    </style>
  </defs>
  <circle class="cls-7" cx="430.49" cy="445.24" r="410.72"/>
  <path class="cls-5" d="M266.67,445.24c-5.63-1.57-13.21-2.45-19.86-2.45-31.13,0-55.41,20.67-56.09,41.49-.77,23.6,28.57,37.43,36.12,27.17"/>
  <path class="cls-5" d="M264.4,510.53c26.48,6.47,34.72-15.3,34.72-30.03,0-1.8-.46-4.85-.85-6.66"/>
  <path class="cls-5" d="M219.84,483.46c0,35.08,18.39,35.9,24.23,35.76,8.25-.2,29.23-.75,22.81-35.76"/>
  <path class="cls-5" d="M592.96,447.93c6.13-1.74,12.98-2.7,20.39-2.7,31.13,0,55.41,20.67,56.09,41.49.77,23.6-28.57,37.43-36.12,27.17"/>
  <path class="cls-5" d="M595.75,512.98c-25,6.11-33.75-12.96-34.64-27.51"/>
  <path class="cls-5" d="M640.31,485.92c0,35.08-18.39,35.9-24.23,35.76-8.25-.2-29.23-.75-22.81-35.76"/>
  <path class="cls-3" d="M328.93,680.78c22.47,21.35,35.69,66.78-4.06,98.14-28.72,22.66-67.32-3.78-81.92-24.06-18.84-26.17-15.48-71.79,6.22-85.97,21.09-13.79,52.72-13.79,79.76,11.9Z"/>
  <path class="cls-3" d="M270.67,660.51s-4.46,12.97,0,22.43"/>
  <path class="cls-3" d="M239.79,678.49s-2.51,13.38,4.79,23.65"/>
  <path class="cls-3" d="M514.26,680.78c-22.47,21.35-35.69,66.78,4.06,98.14,28.72,22.66,67.32-3.78,81.92-24.06,18.84-26.17,15.48-71.79-6.22-85.97-21.09-13.79-52.72-13.79-79.76,11.9Z"/>
  <path class="cls-3" d="M603.4,678.49s2.51,13.38-4.79,23.65"/>
  <path class="cls-3" d="M570.86,659.9s2.51,13.38-4.79,23.65"/>
  <path class="cls-1" d="M460.65,373.29c0,12.69-12.49,17.58-28.91,17.58s-27.17-6.77-27.17-19.47,13.73-26.38,30.16-26.38,25.93,15.58,25.93,28.27Z"/>
  <path class="cls-6" d="M323.46,325.38s22.91-39.13,37.92,6.29"/>
  <path class="cls-6" d="M546.01,344.89s-12.49-43.6-38.29-3.32"/>
  <path class="cls-6" d="M387.22,397.5c2.67,9.7,11.54,16.83,22.09,16.83,9.33,0,17.35-5.58,20.92-13.58"/>
  <path class="cls-6" d="M430.49,400.54c1.04-10.65,1.28-16.87,1.17-21.58"/>
  <path class="cls-6" d="M473.8,400.03c-2.67,9.7-11.13,15.5-21.68,15.5-9.33,0-17.35-5.58-20.92-13.58"/>
  <path class="cls-4" d="M611.39,318.28c1.05,18.85-60.07-13.06-81.65-55.02-21.58-41.96-19.07-103.28-1.28-94.92,73.79,34.68,52.92,32.52,68.74,90.12,7.91,28.79,12.17,23.32,14.19,59.82Z"/>
  <path class="cls-7" d="M276.64,247.05c-13.38,31.23-18.11,38.08-26.99,77.45-23.93,106.06,24.33,176.68,193.44,186.82,130.57,7.83,173.98-60.21,171.24-179.45-.21-8.92-3.85-50.34-11.25-62.05"/>
  <path class="cls-6" d="M561.51,186.48c-22.07-19.87-123-65.9-220.84-8.31"/>
  <path class="cls-2" d="M404.07,153.97s-87.1-69.28-145.09-35.62c-57.99,33.66-40.4,126.61-32.6,133.81,5.27,4.87,44.77,34.89,128.31-94.88"/>
  <path class="cls-2" d="M562.52,186.48s95.95-58.71,138.49,16.22c45.01,79.28,12.85,116.24-6.49,126.53-22.1,11.76-120.44-30.42-96.52-133.02"/>
</svg>